# xmcd
#
# Track frame offsets: 
#        150
#        23169
#        49227
#        62798
#        74247
#        96538
#        146101
#        169159
#        189851
#        226803
#        245194
#        257605
#        279481
#        304369
#        323027
#
# Disc length: 4632 seconds
#
# Revision: 0
# Processed by: cddbd v1.5.2PL0 Copyright (c) Steve Scherf et al.
# Submitted via: ExactAudioCopy v1.0b3
#
DISCID=e712160f
DTITLE=Kelly Bell Band - KBB @ 8 x10 2000-04-04d2
DYEAR=2000
DGENRE=Blues
TTITLE0=Take Me Away -
TTITLE1=One World
TTITLE2=FBI-
TTITLE3=Jam
TTITLE4=Look My Way
TTITLE5=Sky's Talking To Me
TTITLE6=Dear Maggie
TTITLE7=Mama's Chasing the Dragon Again
TTITLE8=Somebody's Fool-
TTITLE9=Jame
TTITLE10=Stolen James Brown Licks (Dean Rosenthal filler)
TTITLE11=Mr Jones (Dean Rosenthal filler)
TTITLE12=Iko Iko (Dean Rosenthal filler)
TTITLE13=Who Do You Love (Dean Rosenthal filler)
TTITLE14=Jungle Partner
EXTD=
EXTT0=
EXTT1=
EXTT2=
EXTT3=
EXTT4=
EXTT5=
EXTT6=
EXTT7=
EXTT8=
EXTT9=
EXTT10=
EXTT11=
EXTT12=
EXTT13=
EXTT14=
PLAYORDER=
